<?xml version="1.0" encoding="UTF-8"?>
<svg width="180px" height="50px" viewBox="0 0 180 50" version="1.1" xmlns="http://www.w3.org/2000/svg" xmlns:xlink="http://www.w3.org/1999/xlink">
    <!-- Generator: Sketch 52.6 (67491) - http://www.bohemiancoding.com/sketch -->
    <title>appstore</title>
    <desc>Created with Sketch.</desc>
    <g id="Widgets" stroke="none" stroke-width="1" fill="none" fill-rule="evenodd">
        <g id="appstore">
            <rect id="Rectangle-6" fill="#262626" x="0" y="0" width="180" height="50" rx="2"></rect>
            <path d="M57.1220703,13.53125 C57.1220703,14.0000023 56.973146,14.3808579 56.675293,14.6738281 C56.3774399,14.9667983 55.966474,15.1523434 55.4423828,15.2304688 L55.4423828,15.2695312 C56.0380889,15.3509119 56.4897446,15.5380845 56.7973633,15.8310547 C57.104982,16.1240249 57.2587891,16.5065081 57.2587891,16.9785156 C57.2587891,17.6458367 57.0097681,18.165851 56.5117188,18.5385742 C56.0136694,18.9112974 55.3105514,19.0976562 54.4023438,19.0976562 C53.5722615,19.0976562 52.8919297,18.9690768 52.3613281,18.7119141 L52.3613281,17.9404297 C52.6738297,18.09017 53.0115542,18.2057288 53.3745117,18.2871094 C53.7374693,18.36849 54.0865869,18.4091797 54.421875,18.4091797 C55.0664095,18.4091797 55.553872,18.2871106 55.8842773,18.0429688 C56.2146826,17.7988269 56.3798828,17.4472679 56.3798828,16.9882812 C56.3798828,16.5520812 56.1967792,16.2216808 55.8305664,15.9970703 C55.4643536,15.7724598 54.9182979,15.6601562 54.1923828,15.6601562 L53.1279297,15.6601562 L53.1279297,14.9619141 L54.1484375,14.9619141 C54.8157585,14.9619141 55.3325177,14.8422864 55.6987305,14.6030273 C56.0649432,14.3637683 56.2480469,14.029299 56.2480469,13.5996094 C56.2480469,13.2513003 56.1162123,12.9729828 55.8525391,12.7646484 C55.5888659,12.5563141 55.2340517,12.4521484 54.7880859,12.4521484 C54.4300112,12.4521484 54.1061212,12.4928381 53.8164062,12.5742188 C53.5266913,12.6555994 53.1914082,12.8167306 52.8105469,13.0576172 L52.4003906,12.5009766 C52.7291683,12.2568347 53.097817,12.0721035 53.5063477,11.9467773 C53.9148783,11.8214512 54.338865,11.7587891 54.7783203,11.7587891 C55.5107458,11.7587891 56.0844706,11.9191065 56.4995117,12.2397461 C56.9145529,12.5603857 57.1220703,12.9908827 57.1220703,13.53125 Z M61.9609375,19 L61.7998047,18.2382812 L61.7607422,18.2382812 C61.4938138,18.5735694 61.2277031,18.8006179 60.9624023,18.9194336 C60.6971015,19.0382493 60.3658874,19.0976562 59.96875,19.0976562 C59.4381484,19.0976562 59.0222997,18.9609389 58.7211914,18.6875 C58.4200831,18.4140611 58.2695312,18.0250676 58.2695312,17.5205078 C58.2695312,16.4397732 59.1337804,15.8733727 60.8623047,15.8212891 L61.7705078,15.7919922 L61.7705078,15.4599609 C61.7705078,15.040037 61.6801767,14.7299815 61.4995117,14.5297852 C61.3188468,14.3295888 61.0299499,14.2294922 60.6328125,14.2294922 C60.1868467,14.2294922 59.6822945,14.3662096 59.1191406,14.6396484 L58.8701172,14.0195312 C59.1337904,13.8763014 59.4226872,13.7639978 59.7368164,13.6826172 C60.0509456,13.6012366 60.3658838,13.5605469 60.6816406,13.5605469 C61.3196646,13.5605469 61.7924789,13.702147 62.1000977,13.9853516 C62.4077164,14.2685561 62.5615234,14.7226531 62.5615234,15.3476562 L62.5615234,19 L61.9609375,19 Z M60.1298828,18.4287109 C60.6344426,18.4287109 61.0307603,18.290366 61.3188477,18.0136719 C61.606935,17.7369778 61.7509766,17.3496119 61.7509766,16.8515625 L61.7509766,16.3681641 L60.9404297,16.4023438 C60.2958952,16.4251303 59.8312189,16.525227 59.5463867,16.7026367 C59.2615546,16.8800465 59.1191406,17.1559226 59.1191406,17.5302734 C59.1191406,17.8232437 59.2078442,18.0462232 59.3852539,18.1992188 C59.5626636,18.3522143 59.8108708,18.4287109 60.1298828,18.4287109 Z M67.4541016,14.3417969 L65.0419922,14.3417969 L65.0419922,19 L64.2314453,19 L64.2314453,13.6484375 L67.4541016,13.6484375 L67.4541016,14.3417969 Z M71.0039062,19.0976562 C70.6555972,19.0976562 70.3374038,19.0333665 70.0493164,18.9047852 C69.761229,18.7762038 69.5195322,18.5784519 69.3242188,18.3115234 L69.265625,18.3115234 C69.3046877,18.624025 69.3242188,18.920246 69.3242188,19.2001953 L69.3242188,21.4023438 L68.5136719,21.4023438 L68.5136719,13.6484375 L69.1728516,13.6484375 L69.2851562,14.3808594 L69.3242188,14.3808594 C69.5325531,14.0878892 69.7750637,13.8763027 70.0517578,13.7460938 C70.3284519,13.6158848 70.6458315,13.5507812 71.0039062,13.5507812 C71.7135452,13.5507812 72.2612285,13.7932918 72.6469727,14.2783203 C73.0327168,14.7633488 73.2255859,15.4436805 73.2255859,16.3193359 C73.2255859,17.1982466 73.0294616,17.8810197 72.637207,18.3676758 C72.2449525,18.8543319 71.7005243,19.0976562 71.0039062,19.0976562 Z M70.8867188,14.2392578 C70.339841,14.2392578 69.9443372,14.3906235 69.7001953,14.6933594 C69.4560535,14.9960953 69.3307292,15.4778613 69.3242188,16.1386719 L69.3242188,16.3193359 C69.3242188,17.0712928 69.449543,17.6092106 69.7001953,17.9331055 C69.9508476,18.2570003 70.3528618,18.4189453 70.90625,18.4189453 C71.3684919,18.4189453 71.7306302,18.2317727 71.9926758,17.8574219 C72.2547214,17.483071 72.3857422,16.9671257 72.3857422,16.3095703 C72.3857422,15.6422493 72.2547214,15.1303729 71.9926758,14.7739258 C71.7306302,14.4174787 71.3619815,14.2392578 70.8867188,14.2392578 Z M73.7919922,13.6484375 L74.6611328,13.6484375 L75.8330078,16.7001953 C76.0901706,17.3968134 76.2496742,17.899738 76.3115234,18.2089844 L76.3505859,18.2089844 C76.3929039,18.0429679 76.4816074,17.7589538 76.6166992,17.3569336 C76.751791,16.9549134 77.1936812,15.7187604 77.9423828,13.6484375 L78.8115234,13.6484375 L76.5117188,19.7421875 C76.283853,20.3444041 76.0177424,20.7716459 75.7133789,21.0239258 C75.4090154,21.2762057 75.035484,21.4023438 74.5927734,21.4023438 C74.3453764,21.4023438 74.1012382,21.3746748 73.8603516,21.3193359 L73.8603516,20.6699219 C74.0393889,20.7089846 74.2395822,20.7285156 74.4609375,20.7285156 C75.0175809,20.7285156 75.4147124,20.4160187 75.6523438,19.7910156 L75.9501953,19.0292969 L73.7919922,13.6484375 Z M80.7011719,15.8701172 C81.7135467,15.8701172 82.2197266,15.5901721 82.2197266,15.0302734 C82.2197266,14.5029271 81.8095744,14.2392578 80.9892578,14.2392578 C80.7386055,14.2392578 80.5107432,14.262044 80.3056641,14.3076172 C80.1005849,14.3531903 79.8320329,14.4443353 79.5,14.5810547 L79.2119141,13.921875 C79.7653022,13.6744779 80.3691374,13.5507812 81.0234375,13.5507812 C81.638675,13.5507812 82.1236961,13.6769193 82.4785156,13.9291992 C82.8333351,14.1814791 83.0107422,14.525714 83.0107422,14.9619141 C83.0107422,15.5608754 82.6770867,15.9531241 82.0097656,16.1386719 L82.0097656,16.1777344 C82.4199239,16.2981777 82.7194001,16.4698882 82.9082031,16.6928711 C83.0970062,16.915854 83.1914062,17.1949853 83.1914062,17.5302734 C83.1914062,18.0250676 82.9920267,18.4099921 82.5932617,18.6850586 C82.1944967,18.9601251 81.6435582,19.0976562 80.9404297,19.0976562 C80.1689415,19.0976562 79.5732443,18.9820975 79.1533203,18.7509766 L79.1533203,18.0087891 C79.7490264,18.2887384 80.3512339,18.4287109 80.9599609,18.4287109 C81.4287133,18.4287109 81.7827136,18.3481453 82.0219727,18.1870117 C82.2612317,18.0258781 82.3808594,17.7939468 82.3808594,17.4912109 C82.3808594,16.869463 81.8746795,16.5585938 80.8623047,16.5585938 L80.1201172,16.5585938 L80.1201172,15.8701172 L80.7011719,15.8701172 Z M85.2714844,13.6484375 L85.2714844,17.0419922 L85.2373047,17.9306641 L85.2226562,18.2089844 L88.1181641,13.6484375 L89.1289062,13.6484375 L89.1289062,19 L88.3720703,19 L88.3720703,15.7285156 L88.3867188,15.0839844 L88.4111328,14.4492188 L85.5205078,19 L84.5097656,19 L84.5097656,13.6484375 L85.2714844,13.6484375 Z M94.4560547,14.3417969 L92.7177734,14.3417969 L92.7177734,19 L91.9072266,19 L91.9072266,14.3417969 L90.1884766,14.3417969 L90.1884766,13.6484375 L94.4560547,13.6484375 L94.4560547,14.3417969 Z M97.7763672,19.0976562 C96.9853476,19.0976562 96.3611677,18.8567732 95.9038086,18.375 C95.4464495,17.8932268 95.2177734,17.2242881 95.2177734,16.3681641 C95.2177734,15.5055295 95.4301737,14.820315 95.8549805,14.3125 C96.2797873,13.804685 96.8502568,13.5507812 97.5664062,13.5507812 C98.2369825,13.5507812 98.7675762,13.7713194 99.1582031,14.2124023 C99.5488301,14.6534853 99.7441406,15.2353479 99.7441406,15.9580078 L99.7441406,16.4707031 L96.0576172,16.4707031 C96.0738933,17.0989615 96.2325831,17.5758447 96.5336914,17.9013672 C96.8347997,18.2268896 97.2587863,18.3896484 97.8056641,18.3896484 C98.3818388,18.3896484 98.9514946,18.2692069 99.5146484,18.0283203 L99.5146484,18.7509766 C99.2281887,18.8746751 98.9571953,18.9633786 98.7016602,19.0170898 C98.446125,19.070801 98.1376971,19.0976562 97.7763672,19.0976562 Z M97.5566406,14.2294922 C97.126951,14.2294922 96.7843437,14.3694647 96.5288086,14.6494141 C96.2732735,14.9293634 96.1227216,15.3167293 96.0771484,15.8115234 L98.875,15.8115234 C98.875,15.3004532 98.7610688,14.9090183 98.5332031,14.637207 C98.3053374,14.3653958 97.9798198,14.2294922 97.5566406,14.2294922 Z M108.064453,14.9912109 C108.064453,15.33952 107.964356,15.604003 107.76416,15.784668 C107.563964,15.9653329 107.283205,16.0865882 106.921875,16.1484375 L106.921875,16.1923828 C107.377606,16.2542321 107.710448,16.3876943 107.92041,16.5927734 C108.130372,16.7978526 108.235352,17.0810529 108.235352,17.4423828 C108.235352,17.9404322 108.052248,18.3245429 107.686035,18.5947266 C107.319822,18.8649102 106.78516,19 106.082031,19 L103.723633,19 L103.723633,13.6484375 L106.072266,13.6484375 C107.400397,13.6484375 108.064453,14.0960242 108.064453,14.9912109 Z M107.424805,17.3886719 C107.424805,17.0989569 107.314943,16.8881843 107.095215,16.7563477 C106.875487,16.6245111 106.511721,16.5585938 106.003906,16.5585938 L104.53418,16.5585938 L104.53418,18.3212891 L106.023438,18.3212891 C106.957687,18.3212891 107.424805,18.0104198 107.424805,17.3886719 Z M107.273438,15.0693359 C107.273438,14.808918 107.173341,14.6241867 106.973145,14.5151367 C106.772948,14.4060867 106.469403,14.3515625 106.0625,14.3515625 L104.53418,14.3515625 L104.53418,15.8603516 L105.90625,15.8603516 C106.407555,15.8603516 106.760741,15.7985032 106.96582,15.6748047 C107.170899,15.5511062 107.273438,15.3492853 107.273438,15.0693359 Z" id="Загрузите-в" fill="#FFFFFF"></path>
            <path d="M60.59375,36 L59.453125,32.828125 L55.0859375,32.828125 L53.96875,36 L52,36 L56.2734375,24.53125 L58.3046875,24.53125 L62.578125,36 L60.59375,36 Z M58.9609375,31.21875 L57.890625,28.109375 C57.8124996,27.9010406 57.7044278,27.5729189 57.5664062,27.125 C57.4283847,26.6770811 57.3333336,26.3489594 57.28125,26.140625 C57.1406243,26.7812532 56.9348972,27.481767 56.6640625,28.2421875 L55.6328125,31.21875 L58.9609375,31.21875 Z M68.2734375,36.15625 C67.179682,36.15625 66.3307322,35.7630248 65.7265625,34.9765625 L65.6171875,34.9765625 C65.6901045,35.7057328 65.7265625,36.1484367 65.7265625,36.3046875 L65.7265625,39.84375 L63.890625,39.84375 L63.890625,27.359375 L65.375,27.359375 C65.4166669,27.5208341 65.5026035,27.906247 65.6328125,28.515625 L65.7265625,28.515625 C66.299482,27.6406206 67.1588484,27.203125 68.3046875,27.203125 C69.3828179,27.203125 70.2226532,27.5937461 70.8242188,28.375 C71.4257843,29.1562539 71.7265625,30.2525971 71.7265625,31.6640625 C71.7265625,33.0755279 71.420576,34.1770794 70.8085938,34.96875 C70.1966115,35.7604206 69.3515679,36.15625 68.2734375,36.15625 Z M67.828125,28.703125 C67.0989547,28.703125 66.5664079,28.9166645 66.2304688,29.34375 C65.8945296,29.7708355 65.7265625,30.4531203 65.7265625,31.390625 L65.7265625,31.6640625 C65.7265625,32.7161511 65.8932275,33.4778622 66.2265625,33.9492188 C66.5598975,34.4205753 67.1041629,34.65625 67.859375,34.65625 C68.4947948,34.65625 68.9843733,34.3958359 69.328125,33.875 C69.6718767,33.3541641 69.84375,32.611984 69.84375,31.6484375 C69.84375,30.6796827 69.6731788,29.9466171 69.3320312,29.4492188 C68.9908837,28.9518204 68.4895866,28.703125 67.828125,28.703125 Z M78.2421875,36.15625 C77.148432,36.15625 76.2994822,35.7630248 75.6953125,34.9765625 L75.5859375,34.9765625 C75.6588545,35.7057328 75.6953125,36.1484367 75.6953125,36.3046875 L75.6953125,39.84375 L73.859375,39.84375 L73.859375,27.359375 L75.34375,27.359375 C75.3854169,27.5208341 75.4713535,27.906247 75.6015625,28.515625 L75.6953125,28.515625 C76.268232,27.6406206 77.1275984,27.203125 78.2734375,27.203125 C79.3515679,27.203125 80.1914032,27.5937461 80.7929688,28.375 C81.3945343,29.1562539 81.6953125,30.2525971 81.6953125,31.6640625 C81.6953125,33.0755279 81.389326,34.1770794 80.7773438,34.96875 C80.1653615,35.7604206 79.3203179,36.15625 78.2421875,36.15625 Z M77.796875,28.703125 C77.0677047,28.703125 76.5351579,28.9166645 76.1992188,29.34375 C75.8632796,29.7708355 75.6953125,30.4531203 75.6953125,31.390625 L75.6953125,31.6640625 C75.6953125,32.7161511 75.8619775,33.4778622 76.1953125,33.9492188 C76.5286475,34.4205753 77.0729129,34.65625 77.828125,34.65625 C78.4635448,34.65625 78.9531233,34.3958359 79.296875,33.875 C79.6406267,33.3541641 79.8125,32.611984 79.8125,31.6484375 C79.8125,30.6796827 79.6419288,29.9466171 79.3007812,29.4492188 C78.9596337,28.9518204 78.4583366,28.703125 77.796875,28.703125 Z M94.765625,32.8984375 C94.765625,33.9140676 94.3984412,34.7109346 93.6640625,35.2890625 C92.9296838,35.8671904 91.9166731,36.15625 90.625,36.15625 C89.3333269,36.15625 88.2760458,35.9557312 87.453125,35.5546875 L87.453125,33.7890625 C87.9739609,34.0338554 88.5273408,34.2265618 89.1132812,34.3671875 C89.6992217,34.5078132 90.2447891,34.578125 90.75,34.578125 C91.489587,34.578125 92.0351545,34.4375014 92.3867188,34.15625 C92.738283,33.8749986 92.9140625,33.4973982 92.9140625,33.0234375 C92.9140625,32.596352 92.7526058,32.2343765 92.4296875,31.9375 C92.1067692,31.6406235 91.4401092,31.2890645 90.4296875,30.8828125 C89.3880156,30.4609354 88.653648,29.9791694 88.2265625,29.4375 C87.799477,28.8958306 87.5859375,28.2447955 87.5859375,27.484375 C87.5859375,26.5312452 87.9244758,25.7812527 88.6015625,25.234375 C89.2786492,24.6874973 90.1874943,24.4140625 91.328125,24.4140625 C92.4218805,24.4140625 93.5104113,24.6536434 94.59375,25.1328125 L94,26.65625 C92.9843699,26.2291645 92.078129,26.015625 91.28125,26.015625 C90.6770803,26.015625 90.2187516,26.1471341 89.90625,26.4101562 C89.5937484,26.6731784 89.4375,27.0208312 89.4375,27.453125 C89.4375,27.7500015 89.4999994,28.0039052 89.625,28.2148438 C89.7500006,28.4257823 89.9557277,28.6249991 90.2421875,28.8125 C90.5286473,29.0000009 91.0442671,29.2473943 91.7890625,29.5546875 C92.6276084,29.9036476 93.2421855,30.2291652 93.6328125,30.53125 C94.0234395,30.8333348 94.3098949,31.1744773 94.4921875,31.5546875 C94.6744801,31.9348977 94.765625,32.3828099 94.765625,32.8984375 Z M100,34.671875 C100.447919,34.671875 100.895831,34.6015632 101.34375,34.4609375 L101.34375,35.84375 C101.140624,35.9322921 100.878908,36.0065101 100.558594,36.0664062 C100.23828,36.1263024 99.9062517,36.15625 99.5625,36.15625 C97.822908,36.15625 96.953125,35.2395925 96.953125,33.40625 L96.953125,28.75 L95.7734375,28.75 L95.7734375,27.9375 L97.0390625,27.265625 L97.6640625,25.4375 L98.796875,25.4375 L98.796875,27.359375 L101.257812,27.359375 L101.257812,28.75 L98.796875,28.75 L98.796875,33.375 C98.796875,33.8177105 98.907551,34.1445302 99.1289062,34.3554688 C99.3502615,34.5664073 99.6406232,34.671875 100,34.671875 Z M110.734375,31.6640625 C110.734375,33.0755279 110.372399,34.1770794 109.648438,34.96875 C108.924476,35.7604206 107.916673,36.15625 106.625,36.15625 C105.817704,36.15625 105.10417,35.9739602 104.484375,35.609375 C103.86458,35.2447898 103.388023,34.7213576 103.054688,34.0390625 C102.721352,33.3567674 102.554688,32.5651087 102.554688,31.6640625 C102.554688,30.2630138 102.914059,29.1692748 103.632812,28.3828125 C104.351566,27.5963502 105.364577,27.203125 106.671875,27.203125 C107.921881,27.203125 108.911455,27.6054647 109.640625,28.4101562 C110.369795,29.2148478 110.734375,30.2994723 110.734375,31.6640625 Z M104.445312,31.6640625 C104.445312,33.6588641 105.182284,34.65625 106.65625,34.65625 C108.114591,34.65625 108.84375,33.6588641 108.84375,31.6640625 C108.84375,29.6900943 108.109382,28.703125 106.640625,28.703125 C105.869788,28.703125 105.3112,28.9583308 104.964844,29.46875 C104.618488,29.9791692 104.445312,30.7109327 104.445312,31.6640625 Z M117.226562,27.203125 C117.596356,27.203125 117.90104,27.2291664 118.140625,27.28125 L117.960938,28.9921875 C117.70052,28.9296872 117.429689,28.8984375 117.148438,28.8984375 C116.414059,28.8984375 115.819013,29.1380184 115.363281,29.6171875 C114.90755,30.0963566 114.679688,30.7187462 114.679688,31.484375 L114.679688,36 L112.84375,36 L112.84375,27.359375 L114.28125,27.359375 L114.523438,28.8828125 L114.617188,28.8828125 C114.903647,28.3671849 115.277341,27.9583348 115.738281,27.65625 C116.199221,27.3541652 116.69531,27.203125 117.226562,27.203125 Z M123.515625,36.15625 C122.171868,36.15625 121.121098,35.7643268 120.363281,34.9804688 C119.605465,34.1966107 119.226562,33.1171944 119.226562,31.7421875 C119.226562,30.3307221 119.578121,29.2213582 120.28125,28.4140625 C120.984379,27.6067668 121.950515,27.203125 123.179688,27.203125 C124.320318,27.203125 125.221351,27.5494757 125.882812,28.2421875 C126.544274,28.9348993 126.875,29.8880148 126.875,31.1015625 L126.875,32.09375 L121.117188,32.09375 C121.143229,32.9322959 121.36979,33.5768207 121.796875,34.0273438 C122.22396,34.4778668 122.825517,34.703125 123.601562,34.703125 C124.111982,34.703125 124.587237,34.6549484 125.027344,34.5585938 C125.46745,34.4622391 125.940102,34.3020845 126.445312,34.078125 L126.445312,35.5703125 C125.997394,35.7838552 125.544273,35.9348954 125.085938,36.0234375 C124.627602,36.1119796 124.10417,36.15625 123.515625,36.15625 Z M123.179688,28.59375 C122.596351,28.59375 122.128908,28.778644 121.777344,29.1484375 C121.425779,29.518231 121.216146,30.0572881 121.148438,30.765625 L125.070312,30.765625 C125.059896,30.0520798 124.888023,29.5117206 124.554688,29.1445312 C124.221352,28.7773419 123.763024,28.59375 123.179688,28.59375 Z" id="App-Store" fill="#FFFFFF"></path>
            <path d="M40.1288626,32.6479151 C39.0016779,34.2938606 37.8357089,35.9296817 35.9948124,35.9639694 C34.1830718,35.9982571 33.6022571,34.8924107 31.534893,34.8924107 C29.4653591,34.8924107 28.8179602,35.9296817 27.1073707,35.9982571 C25.3301698,36.0646727 23.9788094,34.2205604 22.8423354,32.5820395 C20.5205547,29.2318325 18.7484799,23.109315 21.1317323,18.9774829 C22.3119131,16.925525 24.4266592,15.6272354 26.7183075,15.5929612 C28.4636131,15.5608873 30.1123512,16.7679095 31.1783761,16.7679095 C32.2460283,16.7679095 34.247215,15.3187405 36.3510581,15.5312973 C37.231705,15.5676234 39.7033205,15.8856352 41.2906276,18.2049159 C41.165189,18.2872469 38.3404468,19.9282517 38.3748916,23.3470341 C38.409472,27.4309173 41.9587748,28.788387 42,28.8068807 C41.9678606,28.9028594 41.4326106,30.7448118 40.1288626,32.6479151 Z M32.399538,11.0450734 C33.373891,9.90497977 35.0201882,9.05697971 36.378858,9 C36.5524379,10.5836471 35.9143961,12.1694811 34.9720469,13.312207 C34.0277992,14.4528811 32.4821241,15.3414459 30.9651982,15.2228023 C30.7590721,13.6734295 31.5236374,12.05756 32.399538,11.0450734 Z" id="logo" fill="#FFFFFF" fill-rule="nonzero"></path>
        </g>
    </g>
</svg>