<?xml version="1.0" encoding="UTF-8"?>
<svg width="26px" height="25px" viewBox="0 0 26 25" version="1.1" xmlns="http://www.w3.org/2000/svg" xmlns:xlink="http://www.w3.org/1999/xlink">
    <!-- Generator: Sketch 61.2 (89653) - https://sketch.com -->
    <title>ic_other</title>
    <desc>Created with Sketch.</desc>
    <defs>
        <path d="M11.00007,17.84992 L5.3203,20.843522 C4.38639,21.335755 3.77465,20.88521 3.95225,19.847056 L5.03699,13.50651 L0.441967,9.01612 C-0.313586,8.27777 -0.075214,7.55527 0.964516,7.4038 L7.31468,6.47873 L10.15456,0.70991 C10.62152,-0.23864 11.38059,-0.23463 11.84557,0.70991 L14.68545,6.47873 L21.03562,7.4038 C22.07976,7.55591 22.31052,8.28089 21.55816,9.01612 L16.96314,13.50651 L18.04788,19.847056 C18.22624,20.889622 17.60979,21.333672 16.67983,20.843522 L11.00007,17.84992 Z" id="path-1"></path>
        <path d="M1.6408,0.41248 C1.95954,-0.03002 2.56724,-0.13275 3.0049,0.18798 C3.43953,0.50648 3.53838,1.11661 3.21475,1.5659 L2.08192,3.13857 C1.76319,3.58107 1.15549,3.6838 0.71783,3.36307 C0.28319,3.04456 0.18435,2.43444 0.50798,1.98515 L1.6408,0.41248 Z" id="path-3"></path>
        <path d="M3.81525,1.30637 C4.33098,1.47539 4.61564,2.02659 4.44846,2.54554 C4.28245,3.0609 3.7377,3.34426 3.21406,3.17264 L1.38111,2.57193 C0.86539,2.40292 0.58073,1.85171 0.7479,1.33276 C0.91392,0.8174 1.45866,0.53405 1.98231,0.70566 L3.81525,1.30637 Z" id="path-5"></path>
        <path d="M1.97289,3.046686 C1.97289,3.593642 1.54113,4.037037 1.00014,4.037037 C0.46291,4.037037 0.02739,3.602037 0.02739,3.046686 L0.02739,1.102753 C0.02739,0.555797 0.45916,0.112402 1.00014,0.112402 C1.53738,0.112402 1.97289,0.547402 1.97289,1.102753 L1.97289,3.046686 Z" id="path-7"></path>
        <path d="M1.282585,3.17264 C0.766857,3.34166 0.215353,3.06449 0.048181,2.54554 C-0.117834,2.03018 0.157749,1.47798 0.681392,1.30637 L2.514338,0.70566 C3.030066,0.53664 3.58157,0.81381 3.748742,1.33276 C3.914757,1.84812 3.639175,2.40032 3.115531,2.57193 L1.282585,3.17264 Z" id="path-9"></path>
        <path d="M0.785545,1.5659 C0.466807,1.1234 0.557729,0.50871 0.995391,0.18798 C1.43002,-0.13053 2.03586,-0.03681 2.35949,0.41248 L3.49231,1.98515 C3.81105,2.42765 3.72013,3.04234 3.28246,3.36307 C2.84783,3.68158 2.242,3.58786 1.91837,3.13857 L0.785545,1.5659 Z" id="path-11"></path>
    </defs>
    <g id="Page-1" stroke="none" stroke-width="1" fill="none" fill-rule="evenodd">
        <g id="Личный-юрист" transform="translate(-898.000000, -740.000000)">
            <g id="ic_other" transform="translate(898.000000, 740.000000)">
                <g id="Group-3" transform="translate(2.000000, 1.000000)">
                    <mask id="mask-2" fill="white">
                        <use xlink:href="#path-1"></use>
                    </mask>
                    <g id="Clip-2"></g>
                    <path d="M11.00007,17.84992 L5.320303,20.84352 C4.386388,21.33575 3.774646,20.88521 3.952253,19.84706 L5.036992,13.50651 L0.441967,9.016118 C-0.3135859,8.277769 -0.0752145,7.555266 0.9645155,7.403802 L7.314683,6.478729 L10.15456,0.7099138 C10.62152,-0.2386439 11.38059,-0.2346299 11.84557,0.7099138 L14.68545,6.478729 L21.03562,7.403802 C22.07976,7.55591 22.31052,8.280893 21.55816,9.016118 L16.96314,13.50651 L18.04788,19.84706 C18.22624,20.88962 17.60979,21.33367 16.67983,20.84352 L11.00007,17.84992 Z" id="Stroke-1" stroke="#19BB4F" stroke-width="4" mask="url(#mask-2)"></path>
                </g>
                <g id="Group-6" transform="translate(18.000000, 0.000000)">
                    <mask id="mask-4" fill="white">
                        <use xlink:href="#path-3"></use>
                    </mask>
                    <g id="Clip-5"></g>
                    <path d="M1.640799,0.4124717 C1.959537,-0.03002489 2.567233,-0.1327577 3.004896,0.1879714 C3.439528,0.5064799 3.538372,1.116604 3.214742,1.565893 L2.081919,3.138568 C1.763182,3.581064 1.1554855,3.683797 0.717823,3.363068 C0.28319076,3.044559 0.1843469,2.434435 0.5079767,1.985146 L1.640799,0.4124717 Z" id="Stroke-4" stroke="#545461" stroke-width="2" mask="url(#mask-4)"></path>
                </g>
                <g id="Group-9" transform="translate(21.000000, 13.000000)">
                    <mask id="mask-6" fill="white">
                        <use xlink:href="#path-5"></use>
                    </mask>
                    <g id="Clip-8"></g>
                    <path d="M3.815251,1.3063673 C4.330979,1.4753859 4.615634,2.026589 4.448462,2.54554 C4.282447,3.060898 3.737702,3.344255 3.214058,3.172642 L1.3811126,2.571934 C0.8653848,2.402915 0.5807289,1.851712 0.74790108,1.3327611 C0.9139158,0.8174035 1.4586613,0.534046 1.982305,0.70565897 L3.815251,1.3063673 Z" id="Stroke-7" stroke="#545461" stroke-width="2" mask="url(#mask-6)"></path>
                </g>
                <g id="Group-12" transform="translate(12.000000, 21.000000)">
                    <mask id="mask-8" fill="white">
                        <use xlink:href="#path-7"></use>
                    </mask>
                    <g id="Clip-11"></g>
                    <path d="M1.97289,3.046686 C1.97289,3.593642 1.541121,4.037037 1.0001401,4.037037 C0.462905,4.037037 0.02739,3.602037 0.02739,3.046686 L0.02739,1.1027532 C0.02739,0.5557973 0.4591595,0.112402 1.0001401,0.112402 C1.537375,0.112402 1.97289,0.5474019 1.97289,1.1027532 L1.97289,3.046686 Z" id="Stroke-10" stroke="#545461" stroke-width="2" mask="url(#mask-8)"></path>
                </g>
                <g id="Group-15" transform="translate(0.000000, 13.000000)">
                    <mask id="mask-10" fill="white">
                        <use xlink:href="#path-9"></use>
                    </mask>
                    <g id="Clip-14"></g>
                    <path d="M1.282585,3.17264 C0.7668573,3.341659 0.2153531,3.064488 0.04818094,2.545538 C-0.1178338,2.03018 0.1577485,1.4779781 0.6813925,1.3063651 L2.514338,0.70565683 C3.030066,0.5366382 3.58157,0.8138084 3.748742,1.3327589 C3.914757,1.848117 3.639175,2.400319 3.115531,2.571932 L1.282585,3.17264 Z" id="Stroke-13" stroke="#545461" stroke-width="2" mask="url(#mask-10)"></path>
                </g>
                <g id="Group-18" transform="translate(4.000000, 0.000000)">
                    <mask id="mask-12" fill="white">
                        <use xlink:href="#path-11"></use>
                    </mask>
                    <g id="Clip-17"></g>
                    <path d="M0.7855447,1.565898 C0.4668073,1.123401 0.55772857,0.5087052 0.995391,0.1879761 C1.4300233,-0.1305324 2.035858,-0.03681228 2.359487,0.4124764 L3.49231,1.985151 C3.811047,2.427648 3.720126,3.042344 3.282464,3.363073 C2.847831,3.681581 2.241997,3.587861 1.918367,3.138572 L0.7855447,1.565898 Z" id="Stroke-16" stroke="#545461" stroke-width="2" mask="url(#mask-12)"></path>
                </g>
            </g>
        </g>
    </g>
</svg>