<?xml version="1.0" encoding="UTF-8"?>
<svg width="26px" height="24px" viewBox="0 0 26 24" version="1.1" xmlns="http://www.w3.org/2000/svg" xmlns:xlink="http://www.w3.org/1999/xlink">
    <!-- Generator: Sketch 61.2 (89653) - https://sketch.com -->
    <title>User-check</title>
    <desc>Created with Sketch.</desc>
    <defs>
        <path d="M1.995089,9 C0.893232,9 0,8.11074 0,6.990789 L0,6.75 C0,3.00189 3.0128,0 6.75,0 L11.25,0 C14.97624,0 18,2.99978 18,6.75 L18,6.990789 C18,8.100446 17.10738,9 16.00491,9 L1.995089,9 Z" id="path-1"></path>
        <path d="M5,9 C7.48528,9 9.5,6.98528 9.5,4.5 C9.5,2.01472 7.48528,0 5,0 C2.51472,0 0.5,2.01472 0.5,4.5 C0.5,6.98528 2.51472,9 5,9 Z" id="path-3"></path>
    </defs>
    <g id="Page-1" stroke="none" stroke-width="1" fill="none" fill-rule="evenodd">
        <g id="Личный-юрист" transform="translate(-98.000000, -742.000000)">
            <g id="User-check" transform="translate(98.000000, 743.000000)">
                <g id="Group-3" transform="translate(0.000000, 14.000000)">
                    <mask id="mask-2" fill="white">
                        <use xlink:href="#path-1"></use>
                    </mask>
                    <g id="Clip-2"></g>
                    <path d="M1.995089,9 C0.8932319,9 0,8.11074 0,6.990789 L0,6.75 C0,3.001888 3.012795,0 6.75,0 L11.25,0 C14.97624,0 18,2.99978 18,6.75 L18,6.990789 C18,8.100446 17.10738,9 16.00491,9 L1.995089,9 Z" id="Stroke-1" stroke="#35C866" stroke-width="4" stroke-linecap="round" mask="url(#mask-2)"></path>
                </g>
                <g id="Group-6" transform="translate(4.000000, 3.000000)">
                    <mask id="mask-4" fill="white">
                        <use xlink:href="#path-3"></use>
                    </mask>
                    <g id="Clip-5"></g>
                    <path d="M5,9 C7.485281,9 9.5,6.985281 9.5,4.5 C9.5,2.014719 7.485281,0 5,0 C2.514719,0 0.5,2.014719 0.5,4.5 C0.5,6.985281 2.514719,9 5,9 Z" id="Stroke-4" stroke="#35C866" stroke-width="4" mask="url(#mask-4)"></path>
                </g>
                <polyline id="Stroke-7" stroke="#545461" stroke-width="2" stroke-linecap="round" stroke-linejoin="round" points="17 2.475196 20.173838 5 25 0"></polyline>
            </g>
        </g>
    </g>
</svg>